<?xml version="1.0" standalone="no"?><!DOCTYPE svg PUBLIC "-//W3C//DTD SVG 1.1//EN" "http://www.w3.org/Graphics/SVG/1.1/DTD/svg11.dtd"><svg t="1735291369044" class="icon" viewBox="0 0 1024 1024" version="1.1" xmlns="http://www.w3.org/2000/svg" p-id="8997" xmlns:xlink="http://www.w3.org/1999/xlink" width="200" height="200"><path d="M512 0C229.65 0 0 229.65 0 512s229.69 512 512 512c57 0 101.74-44.7 101.74-101.76 0-26.42-9.81-50.79-27.64-68.62-10.38-10.38-16.1-24.87-16.1-40.77 0-35.56 26.81-62.37 62.35-62.37h98.47C892.51 750.52 1024 619 1024 457.31 1024 205.13 794.35 0 512 0z m198 691.73h-91.2c-52.83 0-124.22 41.4-124.22 94.24 0 24.47 9.08 47 25.59 63.55 9.62 9.62 14.91 23 14.91 37.76 0 32.93-24.83 57.76-57.75 57.76C236 945 81.41 728 69.58 507.31 57.22 276.86 265.95 69.58 507.31 69.58S945 243.22 945 456.65c0 129.62-105.41 235.08-235 235.08z" p-id="8998" fill="#ffffff"></path><path d="M812.87 384.47c-54.68 0-97.52 42.84-97.52 97.52s42.84 97.54 97.52 97.54 97.54-42.84 97.54-97.54-42.84-97.52-97.54-97.52zM217.38 384.47c-58.2 0-103.79 45.59-103.79 103.77S159.18 592 217.38 592s103.77-45.59 103.77-103.79-45.59-103.74-103.77-103.74zM770.66 263.18c0-54.69-42.84-97.53-97.53-97.53s-97.53 42.84-97.53 97.53 42.83 97.51 97.53 97.51 97.53-42.84 97.53-97.51zM384.78 165.65c-60 0-107.08 47-107.08 107.08s47 107.06 107.08 107.06 107.06-47 107.06-107.06-47-107.08-107.06-107.08z" p-id="8999" fill="#ffffff"></path></svg>